<svg xmlns="http://www.w3.org/2000/svg" viewBox="0 0 30 30">
  <path d="M27.52 21.134l-.992 1.732a1 1 0 0 1-1.355.366l-2.755-1.604a10.003 10.003 0 0 1-5.435 3.171V27a.994.994 0 0 1-.991 1h-1.984a.994.994 0 0 1-.991-1v-2.201a10.003 10.003 0 0 1-5.435-3.171l-2.755 1.604a1 1 0 0 1-1.355-.366l-.992-1.732a1.005 1.005 0 0 1 .363-1.365l2.766-1.612A10.058 10.058 0 0 1 5.083 15c0-1.106.197-2.162.526-3.157L2.843 10.232a1.005 1.005 0 0 1-.363-1.366l.992-1.732a1 1 0 0 1 1.355-.366l2.755 1.604a10.003 10.003 0 0 1 5.435-3.171V3a.994.994 0 0 1 .991-1h1.984a.994.994 0 0 1 .991 1v2.201a10.003 10.003 0 0 1 5.435 3.171l2.755-1.604a1 1 0 0 1 1.355.366l.992 1.732a1.005 1.005 0 0 1-.363 1.366l-2.766 1.611c.329.995.526 2.051.526 3.157s-.197 2.163-.526 3.157l2.766 1.612c.474.275.637.887.363 1.365zM15 10a5 5 0 1 0 0 10 5 5 0 0 0 0-10z"/>
</svg>
