<svg xmlns="http://www.w3.org/2000/svg" viewBox="0 0 512 512">
  <path fill="#FFC72D" d="M362.476 385.37H149.524c-10.196 0-18.462-8.266-18.462-18.462v-69.099c0-10.196 8.266-18.462 18.462-18.462h212.951c10.196 0 18.462 8.266 18.462 18.462v69.099c.001 10.196-8.265 18.462-18.461 18.462z"/>
  <path fill="#F5BC20" d="M362.476 279.349H256v106.022h106.476c10.196 0 18.462-8.266 18.462-18.462V297.81c0-10.196-8.266-18.461-18.462-18.461z"/>
  <path fill="#FFDA79" d="M393.1 316.272H118.898C53.338 316.272 0 262.934 0 197.372V145.09c0-10.196 8.266-18.462 18.462-18.462h475.077c10.196 0 18.462 8.266 18.462 18.462v52.282c-.001 65.562-53.339 118.9-118.901 118.9z"/>
  <path fill="#FFEDBE" d="M118.898 252.997c-24.512 0-45.866-15.735-53.134-39.158-3.022-9.738 2.423-20.081 12.161-23.103 9.737-3.018 20.081 2.422 23.103 12.161 2.407 7.759 9.755 13.177 17.87 13.177 10.196 0 18.462 8.266 18.462 18.462s-8.265 18.461-18.462 18.461z"/>
  <path fill="#FFC72D" d="M493.538 126.63H256v189.642h137.1c65.562 0 118.9-53.338 118.9-118.898v-52.282c0-10.196-8.266-18.462-18.462-18.462z"/>
</svg>
